<svg id="Layer_1" enable-background="new 0 0 512 512" height="512" viewBox="0 0 512 512" width="512" xmlns="http://www.w3.org/2000/svg"><g><g><path d="m444.997 440.012h-7.997c-8.284 0-15-6.716-15-15v-81.047c0-8.284 6.716-15 15-15h45c16.542 0 30 13.458 30 30v14.045c0 36.945-30.058 67.002-67.003 67.002zm7.003-81.047v50.383c17.066-3.282 30-18.329 30-36.338v-14.045z" fill="#cc2e43"/></g><g><path d="m257 447.987h-109c-8.284 0-15-6.716-15-15v-66c0-8.284 6.716-15 15-15h109c8.284 0 15 6.716 15 15v66c0 8.284-6.716 15-15 15z" fill="#c3fdff"/></g><path d="m257 351.987h-54.5v96h54.5c8.284 0 15-6.716 15-15v-66c0-8.284-6.716-15-15-15z" fill="#66faff"/><g><path d="m303.011 447.988h-201.022c-8.284 0-15-6.716-15-15s6.716-15 15-15h201.021c8.284 0 15 6.716 15 15s-6.715 15-14.999 15z" fill="#51faff"/></g><path d="m22.447 91.043h361.553v218.65h-361.553z" fill="#fff4f4"/><path d="m202.5 91.043h181.5v218.65h-181.5z" fill="#f6efea"/><path d="m390 64.987h-375c-8.284 0-15 6.716-15 15v287 .024c0 8.284 6.716 15 15 15h375c8.284 0 15-6.716 15-15v-.024-287c0-8.284-6.716-15-15-15zm-360 243.025v-213.025h345v213.024h-345z" fill="#00429d"/><path d="m303.011 417.988h-100.511v30h100.511c8.284 0 15-6.716 15-15s-6.716-15-15-15z" fill="#00e7f0"/><path d="m390 64.987h-187.5v30h172.5v213.024h-172.5v74h187.5c8.284 0 15-6.716 15-15v-.024-287c0-8.284-6.716-15-15-15z" fill="#00347b"/><g><path d="m405.557 477.012h-61.115c-25.275 0-45.836-20.187-45.836-45v-110.047c0-8.284 6.841-15 15.279-15h122.23c8.438 0 15.279 6.716 15.279 15v110.048c0 24.813-20.562 44.999-45.837 44.999z" fill="#ff8856"/></g><circle clip-rule="evenodd" cx="202.5" cy="79.988" fill="#c3fdff" fill-rule="evenodd" r="30"/><path clip-rule="evenodd" d="m202.5 49.988v60c16.523 0 30-13.476 30-30s-13.477-30-30-30z" fill="#66faff" fill-rule="evenodd"/><path d="m202.5 124.987c-24.813 0-45-20.187-45-45s20.187-45 45-45 45 20.187 45 45-20.187 45-45 45zm0-59.999c-8.271 0-15 6.729-15 15s6.729 15 15 15 15-6.729 15-15-6.729-15-15-15z" fill="#7dd5f4"/><path d="m202.5 34.988v30c8.271 0 15 6.729 15 15s-6.729 15-15 15v30c24.813 0 45-20.187 45-45s-20.187-45-45-45z" fill="#4793ff"/><path d="m436.115 306.965h-61.498v170.047h30.94c25.275 0 45.836-20.187 45.836-45v-110.047c.001-8.284-6.84-15-15.278-15z" fill="#ff435b"/></g></svg>