<svg id="bold" enable-background="new 0 0 32 32" height="512" viewBox="0 0 32 32" width="512" xmlns="http://www.w3.org/2000/svg"><path d="m26 32h-20c-3.314 0-6-2.686-6-6v-20c0-3.314 2.686-6 6-6h20c3.314 0 6 2.686 6 6v20c0 3.314-2.686 6-6 6z" fill="#e3f8fa"/><path d="m23.4 10-.068-1.522c-.011-.267-.231-.478-.499-.478h-1.667c-.268 0-.488.211-.499.478l-.067 1.522z" fill="#8ce1eb"/><path d="m20.555 11-.555 12.478c-.012.285.216.522.5.522h3c.284 0 .512-.237.499-.522l-.554-12.478z" fill="#8ce1eb"/><path d="m19.778 13.474-3.997-1.454c-.102-.038-.216-.022-.305.04s-.142.164-.142.273v2.191l-6.887-2.504c-.102-.038-.216-.022-.305.04-.089.063-.142.165-.142.273v11.333c0 .185.149.334.333.334h11.119c-.082-.172-.127-.36-.118-.552zm-8.611 8.193h-1.334c-.276 0-.5-.224-.5-.5s.224-.5.5-.5h1.333c.276 0 .5.224.5.5s-.223.5-.499.5zm0-2h-1.334c-.276 0-.5-.224-.5-.5s.224-.5.5-.5h1.333c.276 0 .5.224.5.5s-.223.5-.499.5zm0-2h-1.334c-.276 0-.5-.224-.5-.5s.224-.5.5-.5h1.333c.276 0 .5.224.5.5s-.223.5-.499.5zm3.333 4h-1.333c-.276 0-.5-.224-.5-.5s.224-.5.5-.5h1.333c.276 0 .5.224.5.5s-.224.5-.5.5zm0-2h-1.333c-.276 0-.5-.224-.5-.5s.224-.5.5-.5h1.333c.276 0 .5.224.5.5s-.224.5-.5.5zm0-2h-1.333c-.276 0-.5-.224-.5-.5s.224-.5.5-.5h1.333c.276 0 .5.224.5.5s-.224.5-.5.5zm3.333 4h-1.333c-.276 0-.5-.224-.5-.5s.224-.5.5-.5h1.333c.276 0 .5.224.5.5s-.224.5-.5.5zm0-2h-1.333c-.276 0-.5-.224-.5-.5s.224-.5.5-.5h1.333c.276 0 .5.224.5.5s-.224.5-.5.5zm0-2h-1.333c-.276 0-.5-.224-.5-.5s.224-.5.5-.5h1.333c.276 0 .5.224.5.5s-.224.5-.5.5z" fill="#26c6da"/></svg>