<svg id="Flat" height="512" viewBox="0 0 512 512" width="512" xmlns="http://www.w3.org/2000/svg"><path d="m160 280h48v32h-48z" fill="#f7cca9"/><path d="m56 296h256a32 32 0 0 1 32 32v160a0 0 0 0 1 0 0h-320a0 0 0 0 1 0 0v-160a32 32 0 0 1 32-32z" fill="#e9eef2"/><path d="m136 296v192h-112v-160a32 32 0 0 1 32-32z" fill="#2d85cc"/><path d="m344 328v160h-112v-192h80a32 32 0 0 1 32 32z" fill="#2d85cc"/><path d="m136 296h96v64h-96z" fill="#f7cca9"/><circle cx="288" cy="200" fill="#f0c6a4" r="32"/><circle cx="80" cy="200" fill="#f0c6a4" r="32"/><rect fill="#f7cca9" height="240" rx="104" width="208" x="80" y="56"/><g fill="#452d23"><circle cx="224" cy="200" r="8"/><circle cx="144" cy="200" r="8"/><path d="m192 224h-16a8 8 0 0 1 -8-8v-16a8 8 0 0 1 16 0v8h8a8 8 0 0 1 0 16z"/><path d="m184 264c-34.932 0-46.893-27.742-47.385-28.923a8 8 0 0 1 14.749-6.2c.388.888 8.68 19.126 32.636 19.126 24.385 0 32.536-18.886 32.615-19.077a8 8 0 1 1 14.77 6.154c-.492 1.178-12.453 28.92-47.385 28.92z"/></g><path d="m173.306 24h21.389a101.306 101.306 0 0 1 101.305 101.306v10.694a0 0 0 0 1 0 0h-224a0 0 0 0 1 0 0v-10.694a101.306 101.306 0 0 1 101.306-101.306z" fill="#2d85cc"/><path d="m208 112h-48a8 8 0 0 1 0-16h48a8 8 0 0 1 0 16z" fill="#e9eef2"/><path d="m208 280h48v48h-48z" fill="#1261a0"/><path d="m320 488h-48l-208-192h48z" fill="#95573a"/><path d="m96 400h-32a8 8 0 0 1 0-16h32a8 8 0 0 1 0 16z" fill="#1261a0"/><path d="m280 376h160v112h-160z" fill="#c3c6c7"/><path d="m312 376h176v112h-176z" fill="#e9eef2"/><path d="m312 488 64-56 24-16 24 16 64 56z" fill="#dadcde"/><rect fill="#1261a0" height="32" rx="16" width="256" x="56" y="136"/><path d="m312 376 88 72 88-72z" fill="#e1e3e6"/><path d="m112 280h48v48h-48z" fill="#1261a0"/></svg>