<?xml version="1.0"?>
<svg xmlns="http://www.w3.org/2000/svg" id="Two_Tone" height="512px" viewBox="0 0 512 512" width="512px" data-name="Two Tone" class=""><g><path d="m143.981 456.021a16.007 16.007 0 0 1 -15.474-11.977l-104.007-400.013a16 16 0 1 1 30.969-8.053l104.008 400.013a16.015 16.015 0 0 1 -15.5 20.03z" fill="#90caf9" data-original="#90CAF9" class="" style="fill:#A3DEFE" data-old_color="#90caf9"/><path d="m135.976 432h352a0 0 0 0 1 0 0v24a32 32 0 0 1 -32 32h-288a32 32 0 0 1 -32-32v-24a0 0 0 0 1 0 0z" fill="#90caf9" data-original="#90CAF9" class="" style="fill:#A3DEFE" data-old_color="#90caf9"/><circle cx="143.976" cy="440.001" fill="#2096f3" r="16" data-original="#2096F3" class="active-path" style="fill:#6A96D7" data-old_color="#2096f3"/><path d="m231.976 352h144a0 0 0 0 1 0 0v88a48 48 0 0 1 -48 48h-48a48 48 0 0 1 -48-48v-88a0 0 0 0 1 0 0z" fill="#ffc108" data-original="#FFC108" class=""/><g fill="#0d47a0"><path d="m260.82 297.926c-7.482 6.413-16.793 14.4-16.793 30.075h16c0-7.935 4.049-11.792 11.206-17.927 7.482-6.413 16.794-14.4 16.794-30.075s-9.312-23.662-16.794-30.075c-7.157-6.135-11.206-9.993-11.206-17.927s4.049-11.79 11.206-17.924c7.482-6.413 16.794-14.394 16.794-30.072h-16c0 7.933-4.049 11.79-11.206 17.923-7.482 6.413-16.794 14.394-16.794 30.073s9.311 23.661 16.793 30.074c7.158 6.136 11.207 9.993 11.207 17.928s-4.049 11.792-11.207 17.927z" data-original="#0D47A0" class="" style="fill:#6A96D7" data-old_color="#0D47A0"/><path d="m308.82 297.926c-7.482 6.413-16.793 14.4-16.793 30.075h16c0-7.935 4.049-11.792 11.206-17.927 7.482-6.413 16.794-14.4 16.794-30.075s-9.312-23.662-16.794-30.075c-7.157-6.135-11.206-9.993-11.206-17.927s4.049-11.79 11.206-17.924c7.482-6.413 16.794-14.394 16.794-30.072h-16c0 7.933-4.049 11.79-11.206 17.923-7.482 6.413-16.794 14.394-16.794 30.073s9.311 23.661 16.793 30.074c7.158 6.136 11.207 9.993 11.207 17.928s-4.049 11.792-11.207 17.927z" data-original="#0D47A0" class="" style="fill:#6A96D7" data-old_color="#0D47A0"/><path d="m356.82 297.926c-7.482 6.413-16.793 14.4-16.793 30.075h16c0-7.935 4.049-11.792 11.206-17.927 7.482-6.413 16.794-14.4 16.794-30.075s-9.312-23.662-16.794-30.075c-7.157-6.135-11.206-9.993-11.206-17.927s4.049-11.79 11.206-17.924c7.482-6.413 16.794-14.394 16.794-30.072h-16c0 7.933-4.049 11.79-11.206 17.923-7.482 6.413-16.794 14.394-16.794 30.073s9.311 23.661 16.793 30.074c7.158 6.136 11.207 9.993 11.207 17.928s-4.049 11.792-11.207 17.927z" data-original="#0D47A0" class="" style="fill:#6A96D7" data-old_color="#0D47A0"/><path d="m488.027 424h-50.307a72.451 72.451 0 0 1 -6.385 16h48.692v16a24.028 24.028 0 0 1 -24 24h-68.216a72.138 72.138 0 0 1 -14.634 16h82.85a40.045 40.045 0 0 0 40-40v-24a8 8 0 0 0 -8-8z" data-original="#0D47A0" class="" style="fill:#6A96D7" data-old_color="#0D47A0"/><path d="m220.143 480h-52.117a24.03 24.03 0 0 1 -22.62-16.04 24.028 24.028 0 0 0 22.62-23.96h39.95v-16h-43.31l-101.42-390.049a13.578 13.578 0 0 0 -.528-1.593 24 24 0 0 0 -45.709 14.61c.025.082 103.747 398.913 103.747 398.913a24.119 24.119 0 0 0 7.32 12.02 40.046 40.046 0 0 0 39.95 38.1h66.765a72.571 72.571 0 0 1 -14.648-16.001zm-187.867-438a12.121 12.121 0 0 1 -.3-2 8 8 0 0 1 15.669-2.27c.111.38 98.431 378.36 98.431 378.36-.681-.05-1.36-.09-2.05-.09a23.848 23.848 0 0 0 -13.43 4.12zm103.75 398a8 8 0 1 1 8 8 8.011 8.011 0 0 1 -8-8z" data-original="#0D47A0" class="" style="fill:#6A96D7" data-old_color="#0D47A0"/><path d="m384.429 460.872a61.625 61.625 0 0 0 30.284-24.187c8.424-12.854 11.28-27.649 7.836-40.593a36.841 36.841 0 0 0 -19.013-23.74 41.207 41.207 0 0 0 -19.56-4.338v-16.014a8 8 0 0 0 -8-8h-144a8 8 0 0 0 -8 8v88a56.063 56.063 0 0 0 56 56h48a56.071 56.071 0 0 0 51.284-33.543q2.582-.651 5.169-1.585zm-.453-20.872v-55.94c.311-.011.623-.027.932-.027a24.942 24.942 0 0 1 11.375 2.581 20.759 20.759 0 0 1 10.8 13.593c2.276 8.554.178 18.652-5.756 27.707a46.3 46.3 0 0 1 -17.485 15.7c.081-1.195.134-2.398.134-3.614zm-16 0a40.045 40.045 0 0 1 -40 40h-48a40.045 40.045 0 0 1 -40-40v-80h128z" data-original="#0D47A0" class="" style="fill:#6A96D7" data-old_color="#0D47A0"/></g><path d="m255.976 376.001h16v16h-16z" fill="#ffecb3" data-original="#FFECB3" class="" style="fill:#FFECB3"/><path d="m255.976 408.001h16v40h-16z" fill="#ffecb3" data-original="#FFECB3" class="" style="fill:#FFECB3"/></g> </svg>
