<?xml version="1.0"?>
<svg xmlns="http://www.w3.org/2000/svg" height="512px" viewBox="-1 0 480 480.00002" width="512px" class=""><g><path d="m66.84375 263.601562c-3.902344-1.683593-8.316406-1.742187-12.261719-.167968-3.949219 1.578125-7.105469 4.660156-8.777343 8.566406-.871094 1.996094-1.332032 4.144531-1.359376 6.320312.019532 6.414063 3.855469 12.203126 9.757813 14.71875l97.28125 41.679688 6.320313 9.28125v128h160v-128l6.320312-9.28125 97.277344-41.679688c8.132812-3.488281 11.890625-12.910156 8.402344-21.039062-3.492188-8.128906-12.910157-11.890625-21.039063-8.398438l-90.960937 32.398438h-36.640626c-6.539062 18.539062-23.71875 31.21875-43.359374 32-19.644532-.78125-36.824219-13.460938-43.359376-32h-36.640624zm0 0" fill="#78b9eb" data-original="#78B9EB" class="active-path" style="fill:#A3DEFE" data-old_color="#78b9eb"/><path d="m189.804688 180c0 6.628906-5.375 12-12 12-6.628907 0-12-5.371094-12-12s5.371093-12 12-12c6.625 0 12 5.371094 12 12zm0 0" fill="#78b9eb" data-original="#78B9EB" class="active-path" style="fill:#A3DEFE" data-old_color="#78b9eb"/><path d="m157.804688 144c0 8.835938-7.164063 16-16 16-8.835938 0-16-7.164062-16-16s7.164062-16 16-16c8.835937 0 16 7.164062 16 16zm0 0" fill="#78b9eb" data-original="#78B9EB" class="active-path" style="fill:#A3DEFE" data-old_color="#78b9eb"/><path d="m69.402344 136h.402344c35.34375.109375 64.089843-28.453125 64.199218-63.800781.109375-35.34375-28.453125-64.089844-63.800781-64.199219h-.398437c-35.347657-.109375-64.089844 28.453125-64.199219 63.800781-.113281 35.34375 28.453125 64.089844 63.796875 64.199219zm0 0" fill="#78b9eb" data-original="#78B9EB" class="active-path" style="fill:#A3DEFE" data-old_color="#78b9eb"/><g fill="#1a6fb0"><path d="m237.804688 304c30.878906 0 56-28.710938 56-64s-25.121094-64-56-64c-30.882813 0-56 28.710938-56 64s25.117187 64 56 64zm0-112c22.054687 0 40 21.527344 40 48s-17.945313 48-40 48c-22.058594 0-40-21.527344-40-48s17.941406-48 40-48zm0 0" data-original="#1A6FB0" class="" style="fill:#6A96D7" data-old_color="#1A6FB0"/><path d="m429.804688 272 7.335937-3.199219c-5.097656-12.042969-18.929687-17.746093-31.03125-12.800781l-89.691406 32h-35.253907c-3.261718 0-6.195312 1.976562-7.417968 5-5.371094 15.476562-19.582032 26.152344-35.941406 27-16.359376-.847656-30.574219-11.523438-35.945313-27-1.222656-3.023438-4.15625-5-7.414063-5h-35.257812l-89.214844-31.777344c-12.191406-5.226562-26.3125.421875-31.539062 12.613282-5.230469 12.191406.417968 26.3125 12.609375 31.539062l95.144531 40.800781 3.617188 5.3125v125.511719c0 4.417969 3.582031 8 8 8h160c4.417968 0 8-3.582031 8-8v-125.535156l3.613281-5.3125 95.144531-40.800782c12.1875-5.226562 17.824219-19.34375 12.59375-31.527343zm-7.273438 9.28125c-.78125 1.972656-2.320312 3.550781-4.273438 4.382812l-97.253906 41.703126c-1.402344.605468-2.601562 1.589843-3.464844 2.847656l-6.320312 9.28125c-.910156 1.324218-1.402344 2.894531-1.414062 4.503906v120h-144v-120c-.003907-1.605469-.484376-3.175781-1.386719-4.503906l-6.316407-9.28125c-.863281-1.257813-2.066406-2.242188-3.464843-2.847656l-97.289063-41.695313c-1.957031-.839844-3.5-2.421875-4.285156-4.402344s-.75-4.1875.101562-6.140625c.902344-2.003906 2.578126-3.5625 4.644532-4.3125 2.066406-.753906 4.347656-.640625 6.332031.3125l90.984375 32.421875c.859375.300781 1.765625.453125 2.679688.449219h31.496093c8.804688 18.988281 27.582031 31.375 48.503907 32 20.921874-.625 39.699218-13.011719 48.503906-32h31.496094c.914062 0 1.820312-.15625 2.679687-.464844l91.457031-32.605468c2.992188-1.308594 6.476563-.667969 8.808594 1.621093 2.328125 2.285157 3.035156 5.761719 1.78125 8.777344zm0 0" data-original="#1A6FB0" class="" style="fill:#6A96D7" data-old_color="#1A6FB0"/><path d="m69.804688 48c4.417968 0 8 3.582031 8 8h16c-.042969-10.132812-6.445313-19.148438-16-22.527344v-9.472656h-16v9.472656c-11.011719 3.878906-17.621094 15.132813-15.644532 26.640625 1.980469 11.507813 11.96875 19.910157 23.644532 19.886719 4.417968 0 8 3.582031 8 8s-3.582032 8-8 8c-4.417969 0-8-3.582031-8-8h-16c.042968 10.132812 6.445312 19.148438 16 22.527344v9.472656h16v-9.472656c11.011718-3.878906 17.621093-15.132813 15.640624-26.640625-1.976562-11.507813-11.964843-19.910157-23.640624-19.886719-4.417969 0-8-3.582031-8-8s3.582031-8 8-8zm0 0" data-original="#1A6FB0" class="" style="fill:#6A96D7" data-old_color="#1A6FB0"/><path d="m141.804688 120c-13.253907 0-24 10.746094-24 24s10.746093 24 24 24c13.253906 0 24-10.746094 24-24s-10.746094-24-24-24zm0 32c-4.417969 0-8-3.582031-8-8s3.582031-8 8-8c4.417968 0 8 3.582031 8 8s-3.582032 8-8 8zm0 0" data-original="#1A6FB0" class="" style="fill:#6A96D7" data-old_color="#1A6FB0"/><path d="m177.804688 160c-11.046876 0-20 8.953125-20 20s8.953124 20 20 20c11.042968 0 20-8.953125 20-20s-8.957032-20-20-20zm0 24c-2.210938 0-4-1.789062-4-4s1.789062-4 4-4c2.207031 0 4 1.789062 4 4s-1.792969 4-4 4zm0 0" data-original="#1A6FB0" class="" style="fill:#6A96D7" data-old_color="#1A6FB0"/><path d="m373.804688 0c-27.394532-.0117188-53.683594 10.824219-73.113282 30.136719-53.644531-24.355469-115.945312-20.097657-165.777344 11.335937-16.09375-33.917968-55.84375-49.402344-90.640624-35.308594-34.796876 14.089844-52.570313 52.871094-40.527344 88.429688 12.039062 35.558594 49.71875 55.5625 85.917968 45.613281 36.199219-9.953125 58.363282-46.402343 50.539063-83.117187 44.34375-29.480469 100.496094-34.820313 149.601563-14.226563-28.214844 38.875-26.097657 92.019531 5.117187 128.527344 31.214844 36.503906 83.386719 46.851563 126.171875 25.019531 42.78125-21.832031 65.019531-70.148437 53.777344-116.847656-11.246094-46.695312-53.035156-79.5976562-101.066406-79.5625zm-304 128c-30.929688 0-56-25.070312-56-56s25.070312-56 56-56c30.925781 0 56 25.070312 56 56-.035157 30.914062-25.085938 55.964844-56 56zm304 64c-48.601563 0-88-39.398438-88-88s39.398437-88 88-88c48.601562 0 88 39.398438 88 88-.058594 48.578125-39.421876 87.941406-88 88zm0 0" data-original="#1A6FB0" class="" style="fill:#6A96D7" data-old_color="#1A6FB0"/><path d="m373.804688 112c.742187 0 1.484374-.105469 2.199218-.3125l56-16c4.125-1.3125 6.457032-5.664062 5.265625-9.824219-1.191406-4.160156-5.472656-6.621093-9.664062-5.550781l-45.800781 13.078125v-29.390625c0-4.417969-3.582032-8-8-8-4.417969 0-8 3.582031-8 8v40c0 4.417969 3.582031 8 8 8zm0 0" data-original="#1A6FB0" class="" style="fill:#6A96D7" data-old_color="#1A6FB0"/><path d="m365.804688 24h16v16h-16zm0 0" data-original="#1A6FB0" class="" style="fill:#6A96D7" data-old_color="#1A6FB0"/><path d="m326.871094 38.722656 13.855468-8.003906 8.003907 13.859375-13.859375 8zm0 0" data-original="#1A6FB0" class="" style="fill:#6A96D7" data-old_color="#1A6FB0"/><path d="m300.527344 70.925781 8-13.855469 13.855468 8-8 13.855469zm0 0" data-original="#1A6FB0" class="" style="fill:#6A96D7" data-old_color="#1A6FB0"/><path d="m293.804688 96h16v16h-16zm0 0" data-original="#1A6FB0" class="" style="fill:#6A96D7" data-old_color="#1A6FB0"/><path d="m300.523438 137.066406 13.855468-8 8 13.859375-13.859375 7.996094zm0 0" data-original="#1A6FB0" class="" style="fill:#6A96D7" data-old_color="#1A6FB0"/><path d="m326.875 169.28125 8-13.855469 13.855469 8-8 13.855469zm0 0" data-original="#1A6FB0" class="" style="fill:#6A96D7" data-old_color="#1A6FB0"/><path d="m365.804688 168h16v16h-16zm0 0" data-original="#1A6FB0" class="" style="fill:#6A96D7" data-old_color="#1A6FB0"/><path d="m398.875 163.425781 13.859375-8 8 13.855469-13.859375 8zm0 0" data-original="#1A6FB0" class="" style="fill:#6A96D7" data-old_color="#1A6FB0"/><path d="m425.226562 142.933594 8-13.859375 13.855469 8.003906-8 13.855469zm0 0" data-original="#1A6FB0" class="" style="fill:#6A96D7" data-old_color="#1A6FB0"/><path d="m437.804688 96h16v16h-16zm0 0" data-original="#1A6FB0" class="" style="fill:#6A96D7" data-old_color="#1A6FB0"/><path d="m425.226562 65.070312 13.855469-8 8 13.859376-13.859375 8zm0 0" data-original="#1A6FB0" class="" style="fill:#6A96D7" data-old_color="#1A6FB0"/><path d="m398.882812 44.574219 8-13.855469 13.855469 8-8 13.855469zm0 0" data-original="#1A6FB0" class="" style="fill:#6A96D7" data-old_color="#1A6FB0"/><path d="m285.804688 440h16v16h-16zm0 0" data-original="#1A6FB0" class="" style="fill:#6A96D7" data-old_color="#1A6FB0"/><path d="m261.804688 440h16v16h-16zm0 0" data-original="#1A6FB0" class="" style="fill:#6A96D7" data-old_color="#1A6FB0"/><path d="m285.804688 416h16v16h-16zm0 0" data-original="#1A6FB0" class="" style="fill:#6A96D7" data-old_color="#1A6FB0"/></g></g> </svg>
